<?xml version="1.0" encoding="UTF-8"?>
<svg width="636px" height="317px" viewBox="0 0 636 317" version="1.1" xmlns="http://www.w3.org/2000/svg" xmlns:xlink="http://www.w3.org/1999/xlink">
    <!-- Generator: Sketch 48.2 (47327) - http://www.bohemiancoding.com/sketch -->
    <title>shields--hero</title>
    <desc>Created with Sketch.</desc>
    <defs></defs>
    <g id="Artboard-2" stroke="none" stroke-width="1" fill="none" fill-rule="evenodd" transform="translate(-100.000000, -110.000000)" opacity="0.540000021">
        <g id="Group-Copy" transform="translate(100.000000, 80.000000)" fill-rule="nonzero">
            <g id="Group-2-Copy" transform="translate(0.000000, 30.000000)">
                <g id="Rectangle-20-+-Rectangle-20-Copy-+-Rectangle-20-Copy-2-Mask">
                    <g id="shields--hero" transform="translate(-136.000000, -157.000000)">
                        <polygon id="Shape-Copy-21" fill-opacity="0.1522" fill="#212733" points="145.7 181 127 187.7 129.9 212.4 145.7 221.2 161.5 212.4 164.4 187.7"></polygon>
                        <polygon id="Shape-Copy-20_1_" fill-opacity="0.2188" fill="#FFFFFF" opacity="0.56" points="390.6 440.4 378.4 444.8 380.3 460.9 390.6 466.6 400.9 460.9 402.7 444.8"></polygon>
                        <polygon id="Shape-Copy-12_1_" fill-opacity="0.2188" fill="#FFFFFF" opacity="0.5" points="251.2 146.6 238.6 151.1 240.5 167.8 251.2 173.8 261.9 167.8 263.9 151.1"></polygon>
                        <polygon id="Shape-Copy-13_1_" fill-opacity="0.2188" fill="#FFFFFF" opacity="0.43" points="382.1 374.4 373.7 377.4 375 388.6 382.1 392.6 389.3 388.6 390.6 377.4"></polygon>
                        <polygon id="Shape-Copy-14_1_" fill-opacity="0.2188" fill="#FFFFFF" opacity="0.3" points="239 321 231 323.9 232.2 334.4 239 338.2 245.7 334.4 247 323.9"></polygon>
                        <polygon id="Shape-Copy-15_1_" fill-opacity="0.2188" fill="#FFFFFF" points="261.2 387 256 388.9 256.8 395.7 261.2 398.2 265.6 395.7 266.4 388.9"></polygon>
                        <polygon id="Shape-Copy-22_1_" fill-opacity="0.1522" fill="#212733" opacity="0.5" points="191.2 309.4 179.5 313.6 181.3 329.1 191.2 334.6 201.1 329.1 202.9 313.6"></polygon>
                        <polygon id="Shape-Copy-23_1_" fill-opacity="0.1522" fill="#212733" points="300.6 459 294 461.4 295 470.1 300.6 473.2 306.2 470.1 307.2 461.4"></polygon>
                        <polygon id="Shape-Copy-8_1_" fill-opacity="0.1522" fill="#212733" points="134.1 384.4 125.7 387.4 127 398.6 134.1 402.6 141.3 398.6 142.6 387.4"></polygon>
                        <polygon id="Shape-Copy-20_2_" fill-opacity="0.2188" fill="#FFFFFF" opacity="0.56" points="755.4 445.2 767.1 449.6 765.3 465.7 755.4 471.4 745.5 465.7 743.8 449.6"></polygon>
                        <polygon id="Shape-Copy-13_2_" fill-opacity="0.2188" fill="#FFFFFF" opacity="0.43" points="763.6 379.2 771.6 382.2 770.4 393.4 763.6 397.4 756.7 393.4 755.5 382.2"></polygon>
                    </g>
                </g>
            </g>
        </g>
    </g>
</svg>