<?xml version="1.0" encoding="UTF-8"?>
<svg width="101px" height="88px" viewBox="0 0 101 88" version="1.1" xmlns="http://www.w3.org/2000/svg" xmlns:xlink="http://www.w3.org/1999/xlink">
    <!-- Generator: Sketch 48.2 (47327) - http://www.bohemiancoding.com/sketch -->
    <title>“</title>
    <desc>Created with Sketch.</desc>
    <defs></defs>
    <g id="MASTER" stroke="none" stroke-width="1" fill="none" fill-rule="evenodd" transform="translate(-900.000000, -1314.000000)" fill-opacity="0.0600000024">
        <g id="sidebar" transform="translate(900.000000, 253.000000)" fill="#26293A">
            <g id="Group-5" transform="translate(0.000000, 1061.000000)">
                <g id="Group-2-Copy-2">
                    <g id="“">
                        <path d="M27,59.5 C27,67.166705 24.33336,73.833305 19,79.5 C13.66664,85.166695 7.166705,88 -0.5,88 C-8.833375,88 -15.833305,85.166695 -21.5,79.5 C-27.166695,73.833305 -30,66.500045 -30,57.5 C-30,26.499845 -17.166795,0.00011 8.5,-22 L27,-4 C21.999975,-0.333315 16.9166925,4.9166325 11.75,11.75 C6.5833075,18.5833675 3.500005,25.3333 2.5,32 C9.83337,33.33334 15.7499775,36.5833075 20.25,41.75 C24.7500225,46.9166925 27,52.8333 27,59.5 Z M101,59.5 C101,67.166705 98.33336,73.833305 93,79.5 C87.66664,85.166695 81.166705,88 73.5,88 C65.166625,88 58.166695,85.166695 52.5,79.5 C46.833305,73.833305 44,66.500045 44,57.5 C44,26.499845 56.833205,0.00011 82.5,-22 L101,-4 C95.999975,-0.333315 90.9166925,4.9166325 85.75,11.75 C80.5833075,18.5833675 77.500005,25.3333 76.5,32 C83.83337,33.33334 89.7499775,36.5833075 94.25,41.75 C98.7500225,46.9166925 101,52.8333 101,59.5 Z"></path>
                    </g>
                </g>
            </g>
        </g>
    </g>
</svg>